<?xml version="1.0" standalone="no"?><!DOCTYPE svg PUBLIC "-//W3C//DTD SVG 1.1//EN" "http://www.w3.org/Graphics/SVG/1.1/DTD/svg11.dtd"><svg t="1596868596530" class="icon" viewBox="0 0 1024 1024" version="1.1" xmlns="http://www.w3.org/2000/svg" p-id="2501" xmlns:xlink="http://www.w3.org/1999/xlink" width="200" height="200"><defs><style type="text/css"></style></defs><path d="M512 0a512 512 0 1 0 512 512A512 512 0 0 0 512 0z m166.912 590.4a16.768 16.768 0 0 1-24.128-0.064l-125.888-129.6v308.096a17.088 17.088 0 1 1-34.112 0v-307.2L384.896 573.76a16.768 16.768 0 0 1-24.128 0 17.728 17.728 0 0 1 0-24.704l138.24-141.12a19.968 19.968 0 0 1 12.8-5.44c0.64 0 1.152 0.32 1.728 0.384a16.832 16.832 0 0 1 12.288 5.12l153.152 157.632a17.728 17.728 0 0 1-0.064 24.704z m20.544-222.72H324.224a17.472 17.472 0 0 1 0-34.88h375.232a17.472 17.472 0 0 1 0 34.88z" fill="#F26F73" p-id="2502"></path><path d="M699.456 332.8H324.224a17.472 17.472 0 0 0 0 34.88h375.232a17.472 17.472 0 0 0 0-34.88z m-173.632 75.264a16.832 16.832 0 0 0-12.288-5.12c-0.576-0.064-1.088-0.384-1.664-0.384a19.968 19.968 0 0 0-12.864 5.44l-138.24 141.12a17.728 17.728 0 0 0 0 24.704 16.768 16.768 0 0 0 24.128 0L494.72 461.568v307.264a17.088 17.088 0 1 0 34.112 0V460.8L654.72 590.4a16.768 16.768 0 0 0 24.128 0 17.728 17.728 0 0 0 0.064-24.64z" fill="#FFFFFF" p-id="2503"></path></svg>