<?xml version="1.0" standalone="no"?><!DOCTYPE svg PUBLIC "-//W3C//DTD SVG 1.1//EN" "http://www.w3.org/Graphics/SVG/1.1/DTD/svg11.dtd"><svg t="1595217110317" class="icon" viewBox="0 0 1024 1024" version="1.1" xmlns="http://www.w3.org/2000/svg" p-id="2541" xmlns:xlink="http://www.w3.org/1999/xlink" width="200" height="200"><defs><style type="text/css"></style></defs><path d="M957.472027 269.897196l-50.585054 293.56328c-3.368583 27.476987-10.790727 44.558465-24.871199 57.323244l-0.368598 0.315357-0.315357 0.368599c-14.291391 16.555202-31.425088 18.975667-32.135665 19.054506l-549.042123 42.110355-3.158686 12.422801 3.053226 22.107732c1.895212 16.054522 21.634697 35.05681 36.425744 35.056809h526.276033c13.686275 0 29.687555 6.500648 29.687555 24.89782 0 18.318332-16.002304 24.81898-29.687555 24.81898H346.211464l-4.553218 0.026621c-46.901115-0.026621-84.80023-32.425424-90.116243-77.088326l-54.454317-389.022158-31.004271-181.99664c-2.05289-16.291039-17.185915-30.609052-32.372183-30.609052h-40.873502c-16.370902 0-29.714176-13.527573-29.714176-30.161614s13.343274-30.161614 29.714176-30.161613h40.873502c42.294655 0 74.7467 33.030541 80.746669 82.142224l0.052218 0.395219 2.842306 16.580799 7.711904-1.105796c1.290096-0.21092 2.605788-0.28976 3.921481-0.315357h90.74798c0.078839 0 0.132081-0.026621 0.184299-0.026621h77.930984c13.501976 0 24.529221 11.211544 24.529221 24.89782 0 13.711872-11.027245 24.92444-24.529221 24.92444h-77.930984c-0.026621 0-0.026621-0.026621-0.052218-0.026621h-94.275265l19.844945 116.250916 44.531845 318.303422 8.053882-1.342313a47.361863 47.361863 0 0 1 3.579503-0.447438l534.909434-43.189531 9.448414-2.026269 0.683955-0.28976c16.634041-6.895868 21.266098-34.372854 22.266434-42.611035l45.374502-299.169053c1.578831-14.370231-10.05353-27.793367-13.896171-32.214504-4.342298-5.027277-20.450062-13.264434-27.582447-13.264435h-17.686595c-0.026621 0-0.026621 0.026621-0.052218 0.026621h-88.906011c-13.475355 0-24.5026-11.211544-24.5026-24.92444 0-13.686275 11.027245-24.897819 24.5026-24.89782h88.906011c0.078839 0 0.132081 0.026621 0.184299 0.026621h17.554514c23.818644 0 45.71648 10.080151 61.665541 28.319645 18.211848 20.869855 26.607708 50.399731 23.001584 80.956565z m-275.034028-59.481595h-88.906011c-13.475355 0-24.529221-11.211544-24.52922-24.92444 0-13.686275 11.053866-24.897819 24.52922-24.897819h88.906011c13.501976 0 24.529221 11.211544 24.529221 24.897819 0 13.712896-11.028269 24.92444-24.529221 24.92444z m-184.707889 0c-13.501976 0-24.529221-11.211544-24.52922-24.92444 0-13.686275 11.027245-24.897819 24.52922-24.897819 13.501976 0 24.529221 11.211544 24.529221 24.897819 0 13.712896-11.027245 24.92444-24.529221 24.92444z m-152.96642 632.474443c31.214168 0 56.612667 25.766074 56.612668 57.454301 0 31.688227-25.397475 57.454301-56.612668 57.454302s-56.586046-25.766074-56.586046-57.454302c0-31.688227 25.371878-57.454301 56.586046-57.454301z m448.240614 0.894876c30.741133 0 55.77001 25.371878 55.770009 56.559425 0 31.188571-25.029901 56.559425-55.770009 56.559426-30.741133 0-55.743389-25.371878-55.743389-56.559426 0-31.188571 25.002256-56.559425 55.743389-56.559425z" p-id="2542"></path></svg>